<?xml version="1.0" standalone="no"?><!DOCTYPE svg PUBLIC "-//W3C//DTD SVG 1.1//EN" "http://www.w3.org/Graphics/SVG/1.1/DTD/svg11.dtd"><svg t="1748917117798" class="icon" viewBox="0 0 1024 1024" version="1.1" xmlns="http://www.w3.org/2000/svg" p-id="9017" xmlns:xlink="http://www.w3.org/1999/xlink" width="200" height="200"><path d="M512 0a512 512 0 1 0 0 1024A512 512 0 0 0 512 0z" fill="#F8D7D9" p-id="9018"></path><path d="M668.891429 499.931429a38.765714 38.765714 0 0 1-55.95428601-4.388572l-57.63657199-69.412571 0 329.142857c0 22.747429-17.773714 41.17942901-39.71657101 41.179428a40.448 40.448 0 0 1-39.64342899-41.106285L475.940571 422.765714l-65.828571 73.801143a38.692571 38.692571 0 0 1-56.027429 2.267429 42.203429 42.203429 0 0 1-2.194285-58.075429l122.148571-136.996571a55.588571 55.588571 0 0 1 85.723429 1.60914299l113.29828501 136.41142801c14.262857 17.261714 12.434286 43.154286-4.16914201 58.075429z" fill="#E24D59" p-id="9019"></path></svg>