<?xml version="1.0" standalone="no"?><!DOCTYPE svg PUBLIC "-//W3C//DTD SVG 1.1//EN" "http://www.w3.org/Graphics/SVG/1.1/DTD/svg11.dtd"><svg t="1748916818294" class="icon" viewBox="0 0 1097 1024" version="1.1" xmlns="http://www.w3.org/2000/svg" p-id="8874" xmlns:xlink="http://www.w3.org/1999/xlink" width="214.2578125" height="200"><path d="M529.408 1024a512 512 0 1 0 0-1024 512 512 0 0 0 0 1024z" fill="#BCECDC" p-id="8875"></path><path d="M372.516571 552.521143a38.765714 38.765714 0 0 1 55.954286 4.388571l57.63657199 69.412572 1e-8-329.142857c0-22.747429 17.773714-41.17942901 39.716571-41.179429 21.942857 0 39.643429 18.43200001 39.643429 41.106286l0 332.507428 65.828571-73.874285a38.692571 38.692571 0 0 1 56.027429-2.194286c16.091429 15.35999999 17.115429 41.398857 2.194285 58.075428l-122.14857101 136.996572a55.588571 55.588571 0 0 1-85.65028599-1.609143l-113.371428-136.484571a42.203429 42.203429 0 0 1 4.169142-58.002286z" fill="#09A770" p-id="8876" data-spm-anchor-id="a313x.manage_type_myprojects.0.i7.700f3a81mTdvcL" class="selected"></path></svg>